# xmcd
#
# Track frame offsets:
#	150
#	14568
#	36529
#	55114
#	82986
#	115162
#	150658
#	182953
#	202215
#	227733
#	261655
#	284410
#
# Disc length: 4159 seconds
# Revision: 2
# Processed by: cddbd v1.5.2PL0 Copyright (c) Steve Scherf et al.
# Submitted via: dBpowerAMP V12.0
#
DISCID=b2103d0c
DTITLE=Latvian Blues Band - 10 Year Anniversary Concert
DYEAR=2011
DGENRE=Blues
TTITLE0=Are You Ready
TTITLE1=Take Me Baby
TTITLE2=Trapped
TTITLE3=I'm Done
TTITLE4=Evil
TTITLE5=I'd Rather Be Blind, Crippled and Crazy
TTITLE6=That's All Right, Mama
TTITLE7=C.O.D.
TTITLE8=What's Wrong With Me
TTITLE9=Outro
TTITLE10=300 Pounds of Joy
TTITLE11=For You
EXTD=
EXTT0=
EXTT1=
EXTT2=
EXTT3=
EXTT4=
EXTT5=
EXTT6=
EXTT7=
EXTT8=
EXTT9=
EXTT10=
EXTT11=
PLAYORDER=
